<svg xmlns="http://www.w3.org/2000/svg" xmlns:xlink="http://www.w3.org/1999/xlink" width="1656" height="372" viewBox="0 0 1656 372">
  <defs>
    <style>
      .cls-1 {
        fill: #FFFFFF;
        fill-rule: evenodd;
      }
    </style>
  </defs>
  <path id="Preenchimento_de_Cor_1" data-name="Preenchimento de Cor 1" class="cls-1" d="M159,0H58L1,371h99c10.332-67.993,31-207.333,31-209,0.333,0,48.6,85.63,59,104h20c3.426-3.718,73.463-84.15,89-102,0.073,1.966-30.9,188.07-31,207h99C370.621,342.319,425,.333,425,0H322c-2.821,3.461-100.642,117.581-101,118M390,369v2H509c1.073-.751,4.019-10.118,5-12,5.811-11.148,10.949-23.392,17-35,21.2-40.667,43.372-82.816,62-125h25l17-97c5.358,29.249,30.5,165.887,34,187H633q7.5,41,15,82H777Q734.5,186.019,692,1h-1V0H594C586.617,14.827,411.554,330.69,390,369ZM861,0H994c41.75,0,77.62.29,103,16a87.659,87.659,0,0,1,37,48c15.11,47.425-13.49,96.42-40,113v1h1c8.7,13.092,18.78,23.517,24,41,9.69,32.426-1.58,70.92-14,91-19.04,30.774-46.83,46.248-86,57-22.174,6.087-51.7,4-79,4H803Q832,185.519,861,0Zm333,0h100q-28.995,185.481-58,371H1136C1136.36,352.635,1192.56,9.362,1194,0Zm462,1V0H1554c-1.03,18.6-26.67,185.6-27,189-1.66-2.85-94.8-175.713-98-189h-85q-28.995,185.481-58,371h102c9-59.327,28-181.333,28-183,0.33,0,86.11,158.455,97,183h85C1598.98,352.351,1654.6,9.423,1656,1ZM946,93q-3.5,22.5-7,45h45c33.69,0,56.5.9,50-34-1.51-6.592-5.84-11-14-11H946ZM926,223q-4.5,29-9,58h50c46.45,0,55-4.62,55-34-0.12-6.411-2.48-24-18-24H926Z"/>
</svg>
