<?xml version="1.0" encoding="utf-8"?>
<!-- Generator: Adobe Illustrator 23.0.3, SVG Export Plug-In . SVG Version: 6.00 Build 0)  -->
<svg version="1.1" id="Layer_1" xmlns="http://www.w3.org/2000/svg" xmlns:xlink="http://www.w3.org/1999/xlink" x="0px" y="0px"
	 viewBox="0 0 24 24" style="enable-background:new 0 0 24 24;" xml:space="preserve">
<style type="text/css">
	.st0{fill:url(#SVGID_1_);}
	.st1{fill:none;stroke:#FFFFFF;stroke-width:0.75;stroke-miterlimit:10;}
	.st2{fill:url(#SVGID_2_);}
	.st3{fill:url(#SVGID_3_);}
	.st4{fill:url(#SVGID_4_);}
	.st5{fill:url(#SVGID_5_);}
	.st6{fill:url(#SVGID_6_);}
	.st7{fill:url(#SVGID_7_);}
	.st8{fill:url(#SVGID_8_);}
	.st9{fill:url(#SVGID_9_);}
	.st10{fill:url(#SVGID_10_);}
	.st11{fill:url(#SVGID_11_);}
	.st12{fill:url(#SVGID_12_);}
	.st13{fill:#FFFFFF;}
</style>
<linearGradient id="SVGID_1_" gradientUnits="userSpaceOnUse" x1="0.125" y1="12" x2="23.875" y2="12">
	<stop  offset="0" style="stop-color:#08B54E"/>
	<stop  offset="1" style="stop-color:#0EE23B"/>
</linearGradient>
<circle class="st0" cx="12" cy="12" r="11.9"/>
<circle class="st1" cx="12" cy="12" r="10.6"/>
<circle class="st1" cx="12" cy="12" r="10.3"/>
<g id="XMLID_468_">
	<path id="XMLID_469_" class="st13" d="M14.9,12.9c0,0-0.9-0.4-1.1-0.5c-0.1,0-0.1,0-0.2,0c-0.1,0-0.2,0.1-0.3,0.2
		c-0.1,0.1-0.4,0.4-0.4,0.5c0,0,0,0,0,0c0,0-0.1-0.1-0.2-0.1c-1-0.4-1.7-1.4-1.8-1.6c0,0,0,0,0,0c0,0,0,0,0.1-0.1
		c0,0,0.1-0.1,0.2-0.2c0,0,0-0.1,0.1-0.1c0.1-0.1,0.1-0.2,0.1-0.2l0,0c0.1-0.2,0-0.3,0-0.4c0,0-0.4-0.9-0.4-1
		c-0.1-0.2-0.2-0.3-0.4-0.3c0,0,0,0-0.1,0c-0.1,0-0.5,0.1-0.7,0.2c-0.2,0.1-0.6,0.6-0.6,1.3c0,0.7,0.4,1.3,0.6,1.6c0,0,0,0,0,0
		c0.7,1,1.6,1.8,2.5,2.1c0.9,0.3,1.3,0.4,1.5,0.4c0,0,0,0,0,0c0.1,0,0.2,0,0.2,0l0,0c0.3,0,0.9-0.4,1.1-0.8c0.1-0.3,0.1-0.7,0.1-0.8
		C15.1,13,15,13,14.9,12.9z"/>
	<path id="XMLID_470_" class="st13" d="M12.1,5.9c-3.3,0-6,2.7-6,5.9c0,1.1,0.3,2.1,0.8,3l-1,3c0,0.1,0,0.1,0,0.2c0,0,0.1,0,0.1,0
		c0,0,0,0,0,0l3.2-1c0.9,0.5,1.8,0.7,2.8,0.7c3.3,0,6-2.7,6-5.9C18.1,8.6,15.4,5.9,12.1,5.9z M12.1,16.5c-0.9,0-1.8-0.3-2.6-0.8
		c0,0-0.1,0-0.1,0c0,0,0,0,0,0l-1.6,0.5l0.5-1.5c0,0,0-0.1,0-0.1c-0.6-0.8-0.9-1.8-0.9-2.7c0-2.6,2.1-4.7,4.7-4.7
		c2.6,0,4.7,2.1,4.7,4.7C16.8,14.4,14.7,16.5,12.1,16.5z"/>
</g>
</svg>
