<svg viewBox="0 0 512 512" xmlns="http://www.w3.org/2000/svg" xmlns:xlink="http://www.w3.org/1999/xlink"><defs><linearGradient x1="50%" y1="100%" x2="50%" y2="0%" id="a"><stop stop-color="#1D6FF2" offset="0%"/><stop stop-color="#1AC8FC" offset="100%"/></linearGradient><linearGradient x1="48.257%" y1="0%" x2="48.257%" y2="100%" id="b"><stop stop-color="#FFF" offset="0%"/><stop stop-color="#FFF" stop-opacity=".498" offset="100%"/></linearGradient><linearGradient x1="44.724%" y1="25.682%" x2="27.579%" y2="64.649%" id="c"><stop stop-color="#FFF" offset="0%"/><stop stop-color="#FFF" stop-opacity=".498" offset="100%"/></linearGradient><linearGradient x1="50%" y1="0%" x2="50%" y2="100%" id="d"><stop stop-color="#FFF" offset="0%"/><stop stop-color="#FFF" stop-opacity=".9" offset="100%"/></linearGradient><filter x="-7.8%" y="-6.7%" width="115.6%" height="113.3%" filterUnits="objectBoundingBox" id="e"><feGaussianBlur stdDeviation="8.875" in="SourceGraphic"/></filter><path d="m171 399.079-.525-.014a24.235 24.235 0 0 1-10.656-2.918l-1.712-.935c-56.322-30.931-96.187-71.487-119.596-121.667C11.442 215.518-1.357 152.619.114 84.848a33.783 33.783 0 0 1 19.507-29.9l4.506-2.093 4.402-2.037 2.166-1 3.205-1.474 4.193-1.922 4.1-1.871 4.008-1.82 3.915-1.768 2.875-1.293 3.752-1.68 3.66-1.628 2.683-1.187 1.76-.776 3.452-1.513 2.527-1.101 3.289-1.424 2.405-1.034 2.354-1.005 2.3-.977 2.988-1.257 2.894-1.207 2.11-.87 1.378-.566 2.023-.823 1.32-.533 1.296-.52 1.901-.756 1.85-.727 1.796-.7 1.17-.449 1.71-.65 1.11-.419 1.384-.516 2.095-.777 2.115-.777 2.134-.777 1.431-.517 1.438-.516 2.165-.769 2.175-.763 2.182-.756 1.456-.498 1.457-.495 1.458-.489 1.456-.483 1.456-.478 1.452-.47 1.45-.465 1.445-.456 1.441-.45 1.435-.44.716-.216 1.425-.427c.474-.14.947-.28 1.418-.417l1.41-.407 1.4-.397 1.39-.385C154.488 1.877 163.963 0 171 0c7.036 0 16.51 1.878 26.898 4.727l1.39.385 1.4.397 1.41.407c.47.137.943.276 1.417.417l1.425.427.716.217 1.435.44 1.44.449 1.446.456 1.45.464 1.452.471 1.456.478 1.456.483 1.458.49 1.457.494 1.456.498 2.182.756 2.175.763 2.165.77 1.438.515 1.431.517 2.134.777 2.115.777 2.095.777 1.384.516 1.11.418 1.71.651 1.17.45 1.796.699 1.85.727 1.9.756 1.297.52 1.32.533 2.023.823 1.378.565 2.11.871 2.894 1.207 2.987 1.257 2.301.977 2.354 1.005 2.405 1.034 3.29 1.424 2.526 1.101 3.451 1.513 1.76.776 2.684 1.187 3.66 1.628 3.752 1.68 2.875 1.293 3.915 1.768 4.008 1.82 4.1 1.87 4.193 1.923 3.205 1.475 2.166 1 4.402 2.036 4.506 2.094a33.783 33.783 0 0 1 19.507 29.899c1.47 67.771-11.328 130.67-38.397 188.697-23.409 50.18-63.274 90.736-119.596 121.667l-1.712.935a24.235 24.235 0 0 1-10.656 2.918l-.525.014Z" id="f"/></defs><g fill="none" fill-rule="evenodd"><path fill="url(#a)" d="M0 0h512v512H0z"/><g fill-rule="nonzero"><path d="m193.229.162 206.86 207.246-20.224 20.26.001-.69h-34.13a11.756 11.756 0 0 1-8.32-3.45l-47.658-47.747a58.56 58.56 0 0 0-41.447-17.19h-6.374a58.56 58.56 0 0 0-45.422 21.597L177.97 202.98a8.749 8.749 0 0 0 2.868 13.344c.708.355 1.434.65 2.172.886h-37.7a39.04 39.04 0 0 0-17.486 4.134l-7.765 3.89a1.952 1.952 0 0 0 0 3.49l7.765 3.89a39.04 39.04 0 0 0 17.486 4.135h24.51a7.875 7.875 0 0 0 2.217 6.719l22.528 22.568a58.56 58.56 0 0 0 22.896 14.174l7.102 2.372a58.56 58.56 0 0 0 18.55 3.015h60.275c5.451 0 10.875.761 16.116 2.261l.221.063L207.02 400.838.16 193.592 193.228.162Zm25.738 246.355h-.117a34.988 34.988 0 0 1-24.252-9.768h41.715a20.286 20.286 0 0 1-17.346 9.768Zm0-48.848c3.121 0 6.115 1.241 8.32 3.45l6.307 6.32a22.35 22.35 0 0 1 5.708 9.769h-47.106a15.079 15.079 0 0 0 6.098-3.718l12.352-12.37a11.758 11.758 0 0 1 8.32-3.451Z" fill="url(#b)" opacity=".4" transform="translate(58 58)"/><path d="M169.822 236.748a7.865 7.865 0 0 1 4.263-5.885 15.106 15.106 0 0 1 17.457 2.834l2.546 2.55a34.989 34.989 0 0 0 24.762 10.27h.117a20.286 20.286 0 0 0 17.347-9.77h46.029c5.39 0 9.76-4.369 9.76-9.76v-.019c0-5.39-4.37-9.76-9.76-9.76h-43.04a22.35 22.35 0 0 0-5.71-9.77l-6.306-6.318a11.756 11.756 0 0 0-16.641 0l-12.352 12.37a15.079 15.079 0 0 1-6.098 3.719h-9.184a15.137 15.137 0 0 1-2.175-.886 8.749 8.749 0 0 1-2.868-13.344l18.546-22.79a58.56 58.56 0 0 1 45.422-21.599h6.374a58.56 58.56 0 0 1 41.447 17.19l47.658 47.747a11.756 11.756 0 0 0 8.32 3.451h34.13v78.158l-60.361-17.279a58.56 58.56 0 0 0-16.116-2.26h-60.275a58.56 58.56 0 0 1-18.55-3.016l-7.102-2.372a58.56 58.56 0 0 1-22.896-14.174l-22.527-22.568a7.875 7.875 0 0 1-2.217-6.72Z" fill="url(#c)" transform="translate(58 58)"/><path fill="#FFF" d="M408.612 275.208h39.006v97.697h-39.006z"/><path d="M282.343 217.208c5.39 0 9.76 4.37 9.76 9.76v.02c0 5.39-4.37 9.76-9.76 9.76h-87.746a35.028 35.028 0 0 1-.509-.5l-2.546-2.551a15.106 15.106 0 0 0-17.457-2.834 7.865 7.865 0 0 0-4.263 5.885H145.31a39.04 39.04 0 0 1-17.486-4.135l-7.765-3.89a1.952 1.952 0 0 1 0-3.49l7.765-3.89a39.04 39.04 0 0 1 17.486-4.135h137.032Z" fill="url(#d)" transform="translate(58 58)"/></g><path fill="#FFF" d="M0 0h512v512H0z"/><path d="m171 405-.385-.01a24.234 24.234 0 0 1-10.446-2.736l-.35-.186-1.712-.934c-56.322-30.932-96.187-71.488-119.596-121.668C11.442 221.439-1.357 158.54.114 90.769a33.784 33.784 0 0 1 19.159-29.734l.348-.165 4.506-2.094 4.402-2.037 2.166-.999 3.205-1.475 4.193-1.922 4.1-1.87 4.008-1.82 3.915-1.77 2.875-1.292 3.752-1.68 3.66-1.628 2.683-1.187 1.76-.776 3.452-1.513 2.527-1.101 3.289-1.424 2.405-1.034 2.354-1.005 2.3-.977 2.988-1.257 2.894-1.207 2.11-.87 1.378-.566 2.023-.823 1.32-.533 1.296-.52 1.901-.756 1.85-.727 1.796-.7 1.17-.449 1.71-.65 1.11-.419 1.384-.516 2.095-.777 2.115-.777 2.134-.777 1.431-.517 1.438-.516 2.165-.769 2.175-.763 2.182-.756 1.456-.498 1.457-.495 1.458-.489 1.456-.483 1.456-.478 1.452-.47 1.45-.465 1.445-.456 1.441-.449 1.435-.44.716-.217 1.425-.427 1.418-.417 1.41-.407 1.4-.397 1.39-.385 1.109-.302.552-.148 1.098-.29.546-.141 1.086-.278 1.077-.27 1.068-.26 1.059-.252.525-.122 1.044-.238c.346-.078.69-.154 1.033-.228l1.022-.219.507-.105 1.005-.204.498-.097.987-.188c4.576-.851 8.74-1.35 12.302-1.385h.38c3.643 0 7.94.504 12.68 1.385l.987.188.498.097 1.005.204.507.105 1.022.219.515.113 1.039.233 1.048.242 1.059.252 1.068.26 1.077.27 1.086.278 1.094.285.55.146 1.106.298c.185.05.37.1.556.152l1.39.385 1.4.397 1.41.407 1.417.417 1.425.427.716.217 1.435.44 1.44.449 1.446.456 1.45.464 1.452.471 1.456.478 1.456.483 1.458.49 1.457.494 1.456.498 2.182.756 2.175.763 2.165.77 1.438.515 1.431.517 2.134.777 2.115.777 2.095.777 1.384.516 1.11.418 1.71.651 1.17.45 1.796.699 1.85.727 1.9.756 1.297.52 1.32.533 2.023.823 1.378.565 2.11.871 2.894 1.207 2.987 1.257 2.301.977 2.354 1.005 2.405 1.034 3.29 1.424 2.526 1.101 3.451 1.513 1.76.776 2.684 1.187 3.66 1.629 3.752 1.679 2.875 1.293 3.915 1.768 4.008 1.82 4.1 1.87 4.193 1.923 3.205 1.475 2.166 1 4.402 2.036 4.506 2.094a33.783 33.783 0 0 1 19.507 29.899c1.47 67.771-11.328 130.67-38.397 188.697-23.409 50.18-63.274 90.736-119.596 121.668l-1.712.934a24.235 24.235 0 0 1-10.796 2.923L171 405Z" fill="#0091FF" filter="url(#e)" transform="translate(85 54)"/><g transform="translate(85 54)"><mask id="g" fill="#fff"><use xlink:href="#f"/></mask><use fill="#0091FF" xlink:href="#f"/><path fill="#D8D8D8" opacity=".439" style="mix-blend-mode:overlay" mask="url(#g)" d="M171-41.447h232.536v481.974H171z"/></g><path d="M355.326 184.406c3.596 3.598 3.771 9.373.4 13.174l-68.632 77.402-11.258 13.061c-10.386 12.05-28.578 13.381-40.631 2.973a28.871 28.871 0 0 1-3.087-3.103l-44.207-51.765c-3.007-3.522-2.805-8.763.465-12.034l8.55-8.556a8.858 8.858 0 0 1 11.457-.912l41.83 30.24a7.396 7.396 0 0 0 9.218-.442l76.198-67.037c3.802-3.344 9.55-3.156 13.133.43l6.564 6.57Z" fill="#FFF"/></g></svg>