<?xml version="1.0" encoding="UTF-8" standalone="no"?> <svg id="icon" xmlns="http://www.w3.org/2000/svg" viewBox="0 0 512 512"><defs><style>.cls-1{fill:#d7f7ff;}.cls-2{fill:#71c5db;}.cls-3{fill:#fff;}.cls-4{fill:#4d4d4d;}</style></defs><title>fingerprint</title><rect class="cls-1" x="117.12" y="26.08" width="277.76" height="453.78" rx="138.88"/><rect class="cls-1" x="117.12" y="26.08" width="277.76" height="453.78" rx="138.88"/><path class="cls-2" d="M231.43,460.92c0,5.7.27,11.33.77,16.9a139.24,139.24,0,0,0,23.8,2h0A138.88,138.88,0,0,0,394.88,341V276.14C302.78,287.34,231.43,365.79,231.43,460.92Z"/><rect class="cls-3" x="161.13" y="87.99" width="189.74" height="339.96" rx="94.87"/><path class="cls-2" d="M298.21,32.62A138.83,138.83,0,0,0,256,26.08h0A138.88,138.88,0,0,0,117.12,165v82.35C218.38,227.09,295.18,139.09,298.21,32.62Z"/><path class="cls-1" d="M234.8,425.54A95,95,0,0,0,256,428h0a94.87,94.87,0,0,0,94.87-94.87v-46A186.45,186.45,0,0,0,234.8,425.54Z"/><path class="cls-1" d="M288,93.55A94.7,94.7,0,0,0,256,88h0a94.86,94.86,0,0,0-94.87,94.87v50.83A226.2,226.2,0,0,0,288,93.55Z"/><path class="cls-4" d="M308.73,463.31a133.64,133.64,0,0,1-102.46,1.24,5.71,5.71,0,0,0-4.27,10.6,145.13,145.13,0,0,0,111.25-1.35,5.71,5.71,0,1,0-4.52-10.49Z"/><path class="cls-4" d="M321.58,37.56a5.71,5.71,0,1,0-5.18,10.18,134,134,0,0,1,61.14,64.2A5.71,5.71,0,0,0,388,107.26,145.39,145.39,0,0,0,321.58,37.56Z"/><path class="cls-4" d="M219.12,26.61A144.65,144.65,0,0,0,111.41,166.46v27.23a5.71,5.71,0,1,0,11.42,0V166.46A133.22,133.22,0,0,1,222,37.66a5.71,5.71,0,1,0-2.9-11Z"/><path class="cls-4" d="M344,451.38a5.72,5.72,0,0,0-4.1-7,209.14,209.14,0,0,1-20-6.28c-52-19.25-96.79-19.13-133,.33a85.69,85.69,0,0,1-17,6.58,5.71,5.71,0,0,0,1.55,11.21A5.6,5.6,0,0,0,173,456a97,97,0,0,0,19.26-7.51c33.23-17.84,74.83-17.73,123.66.33a220.89,220.89,0,0,0,21.1,6.62A5.72,5.72,0,0,0,344,451.38Z"/><path class="cls-4" d="M372.18,422.82a5.71,5.71,0,0,0,.6-11.39,116,116,0,0,1-36.9-9.95c-59.74-28-94.62-30.22-138.2-9-15.54,7.58-35.94,12.81-60.63,15.56a5.71,5.71,0,1,0,1.26,11.35c26-2.89,47.65-8.49,64.37-16.64,35.41-17.26,65-20.6,128.36,9.06a127.44,127.44,0,0,0,40.52,11C371.77,422.81,372,422.82,372.18,422.82Z"/><path class="cls-4" d="M389.25,386a5.71,5.71,0,0,0,.43-11.41A82.87,82.87,0,0,1,350.39,361c-76.67-50.09-124.11-31.89-166.13-9-15.24,8.31-36.6,14.43-63.51,18.19a5.71,5.71,0,0,0,1.58,11.31c28.27-3.95,51-10.5,67.4-19.47,40.6-22.15,83-38.17,154.41,8.5A94.21,94.21,0,0,0,388.8,386Z"/><path class="cls-4" d="M394.84,240.78c-42.14-7.51-71.11-40.27-81.13-69.4a69.31,69.31,0,0,0-6.53-14c-10.53-17-29.51-23.89-48.35-17.67-15.63,5.16-30.56,20.62-28.67,43.53A72.48,72.48,0,0,0,234.21,202c37.51,93.18,116.35,115.74,160,120.9a5.27,5.27,0,0,0,.68,0,5.71,5.71,0,0,0,.66-11.38c-41.14-4.87-115.43-26.12-150.72-113.75a63,63,0,0,1-3.29-15.52c-1.47-17.86,10.33-28.26,20.87-31.74,10.37-3.43,25.77-2.12,35.06,12.85a57.35,57.35,0,0,1,5.44,11.68c11.1,32.3,43.21,68.61,89.93,76.93a5.71,5.71,0,1,0,2-11.24Z"/><path class="cls-4" d="M395.83,278.19c-38.08-6.43-69.19-24.51-92.46-53.76-17.49-22-23.76-42.36-23.82-42.57a5.71,5.71,0,0,0-10.94,3.27c.27.91,6.8,22.37,25.51,46,17.26,21.83,48.59,49.66,99.81,58.3a5.2,5.2,0,0,0,1,.09,5.71,5.71,0,0,0,.94-11.35Z"/><path class="cls-4" d="M117.11,345.53a6.18,6.18,0,0,0,.85-.06c36-5.34,68.13-17.81,95.45-37.07a49.35,49.35,0,0,1,49.92-4A187.64,187.64,0,0,0,294,316.1a5.71,5.71,0,1,0,3.1-11,177.39,177.39,0,0,1-28.77-11,60.78,60.78,0,0,0-61.48,4.93c-25.85,18.23-56.32,30-90.55,35.11a5.71,5.71,0,0,0,.83,11.36Z"/><path class="cls-4" d="M111.53,305.62a5.7,5.7,0,0,0,5.58,4.56,5.81,5.81,0,0,0,1.17-.12c44.66-9.24,82.22-29.53,111.62-60.3a5.71,5.71,0,1,0-8.26-7.89c-27.77,29.06-63.33,48.24-105.68,57A5.71,5.71,0,0,0,111.53,305.62Z"/><path class="cls-4" d="M116.29,264.72A5.71,5.71,0,1,0,117.94,276c28.29-4.14,51.14-15.86,66.08-33.9a71.61,71.61,0,0,0,16.18-51.64c-1.77-22.52,1.38-62.53,42.4-77.33l.29-.11a70.33,70.33,0,0,1,27.6-4.35c20.5.92,36.82,11.17,48.51,30.46,24.3,40.1,46.3,59.39,73.55,64.49a5.71,5.71,0,1,0,2.1-11.23c-23.73-4.44-43.43-22.14-65.88-59.18-31.89-52.61-86.3-32.31-90.13-30.8-49.87,18-51.46,68.21-49.82,88.95a61.14,61.14,0,0,1-13.6,43.45C158.66,254.84,134,262.13,116.29,264.72Z"/><path class="cls-4" d="M246.67,55.14c-60.5,13.68-84.09,47.67-87,125.41-1,26.5-15.79,43.67-43.95,51a5.71,5.71,0,0,0,1.43,11.24,6,6,0,0,0,1.45-.18c33.14-8.65,51.29-30,52.49-61.64,2.74-72.25,23.19-102.27,78.14-114.7,23-5.21,45.26-.57,66.08,13.79A103.72,103.72,0,0,1,346.65,115c6.84,12.13,21.93,33.88,46.16,43.29A5.71,5.71,0,1,0,397,147.65C376,139.53,362.69,120.2,356.6,109.4a115,115,0,0,0-34.85-38.74C298.53,54.64,272.57,49.28,246.67,55.14Z"/><path class="cls-4" d="M125.4,22.17H79.06a5.71,5.71,0,0,0-5.71,5.71V74.29a5.72,5.72,0,0,0,11.43,0V33.59H125.4a5.71,5.71,0,1,0,0-11.42Z"/><path class="cls-4" d="M73.35,484.12a5.71,5.71,0,0,0,5.71,5.71H125.4a5.71,5.71,0,1,0,0-11.42H84.78v-40.7a5.72,5.72,0,0,0-11.43,0Z"/><path class="cls-4" d="M438.65,27.88a5.71,5.71,0,0,0-5.71-5.71H386.6a5.71,5.71,0,0,0,0,11.42h40.62v40.7a5.72,5.72,0,0,0,11.43,0Z"/><path class="cls-4" d="M386.6,489.83h46.34a5.71,5.71,0,0,0,5.71-5.71V437.71a5.72,5.72,0,0,0-11.43,0v40.7H386.6a5.71,5.71,0,0,0,0,11.42Z"/></svg>