<?xml version="1.0" encoding="UTF-8" standalone="no"?> <svg id="Layer_1" data-name="Layer 1" xmlns="http://www.w3.org/2000/svg" viewBox="0 0 128 128"><defs><style>.cls-1{fill:#2e79bd;}.cls-2{fill:#2d3e50;}</style></defs><title>x</title><path class="cls-1" d="M71.43392,44.65766h7.38577a1.88614,1.88614,0,0,1,1.88614,1.88614v7.38566a1.88614,1.88614,0,0,1-1.88614,1.88614H71.434a1.88625,1.88625,0,0,1-1.88625-1.88625V46.5438A1.88614,1.88614,0,0,1,71.43392,44.65766Z"/><path class="cls-1" d="M37.05086,2.7752H29.64245a1.88833,1.88833,0,0,0-1.88614,1.88625v7.38566a1.88824,1.88824,0,0,0,1.88614,1.88614h7.38566a1.88833,1.88833,0,0,0,1.88625-1.88614V4.66145A1.87714,1.87714,0,0,0,37.05086,2.7752Z"/><rect class="cls-1" x="48.66342" y="2.7752" width="11.15794" height="11.15806" rx="1.88614" ry="1.88614"/><path class="cls-1" d="M37.05086,23.75055H29.64245a1.88824,1.88824,0,0,0-1.88614,1.88614v7.38566a1.88824,1.88824,0,0,0,1.88614,1.88614h7.38566a1.88833,1.88833,0,0,0,1.88625-1.88614V25.63669A1.877,1.877,0,0,0,37.05086,23.75055Z"/><path class="cls-1" d="M37.05086,44.65766H29.64245a1.88824,1.88824,0,0,0-1.88614,1.88614v7.38566a1.88824,1.88824,0,0,0,1.88614,1.88614h7.38566a1.88833,1.88833,0,0,0,1.88625-1.88614V46.5438A1.877,1.877,0,0,0,37.05086,44.65766Z"/><path class="cls-1" d="M78.81958,2.7752H71.43392a1.88833,1.88833,0,0,0-1.88614,1.88625v7.38566a1.91114,1.91114,0,0,0,1.88614,1.88614h7.38566a1.88833,1.88833,0,0,0,1.88625-1.88614V4.66145A1.88843,1.88843,0,0,0,78.81958,2.7752Z"/><path class="cls-1" d="M78.81958,23.75044H71.43392a1.88833,1.88833,0,0,0-1.88614,1.88625v7.38566a1.91114,1.91114,0,0,0,1.88614,1.88614h7.38566a1.88833,1.88833,0,0,0,1.88625-1.88614V25.63669A1.88843,1.88843,0,0,0,78.81958,23.75044Z"/><path class="cls-2" d="M105.9777,77.82163a7.20473,7.20473,0,0,0-5.11138-6.80089L63.35545,59.47953,60.06408,28.99547a6.07874,6.07874,0,0,0-1.86572-4.481l-.07634-.07335a6.44017,6.44017,0,0,0-11.04765,4.55434l.63293,59.5782L47.338,95.013l-9.87655-8.45268c-.29915-.29028-7.45424-7.1016-14.66036-2.53017l-.01479.0094a1.678,1.678,0,0,0-.40229,2.44985c4.73387,6.03275,22.89919,28.14266,22.89919,28.14266a29.00857,29.00857,0,0,0,22.47168,10.5927H80.66738A19.81981,19.81981,0,0,0,100.142,109.05224Z"/></svg>